<svg xmlns="http://www.w3.org/2000/svg"  viewBox="0 0 48 48" width="96px" height="96px"><linearGradient id="f6yIebMuSrKZ_sDrXzR1Ma" x1="15.811" x2="31.621" y1="1.502" y2="44.939" gradientUnits="userSpaceOnUse"><stop offset="0" stop-color="#889097"/><stop offset="1" stop-color="#4c5963"/></linearGradient><path fill="url(#f6yIebMuSrKZ_sDrXzR1Ma)" d="M22.913,5.304l-17,11.005C5.344,16.677,5,17.309,5,17.988v12.024	c0,0.678,0.344,1.31,0.913,1.679l17,11.005c0.661,0.428,1.512,0.428,2.174,0l17-11.005C42.656,31.323,43,30.69,43,30.012V17.988	c0-0.678-0.344-1.31-0.913-1.679l-17-11.005C24.426,4.875,23.574,4.875,22.913,5.304z M23.422,27.19l-3.254-2.307	c-0.566-0.401-0.561-1.243,0.009-1.638l3.254-2.251c0.342-0.237,0.796-0.237,1.138,0l3.254,2.251	c0.571,0.395,0.576,1.237,0.009,1.638l-3.254,2.307C24.232,27.436,23.768,27.436,23.422,27.19z M26,16.67v-4.139	c0-0.792,0.878-1.27,1.543-0.84l8.644,5.59c0.594,0.384,0.612,1.247,0.035,1.656l-3.25,2.304c-0.344,0.244-0.804,0.246-1.15,0.005	l-5.393-3.755C26.16,17.304,26,16.997,26,16.67z M21.571,17.491l-5.393,3.755c-0.346,0.241-0.806,0.239-1.15-0.005l-3.25-2.304	c-0.577-0.409-0.559-1.271,0.035-1.656l8.644-5.59c0.665-0.43,1.543,0.047,1.543,0.84v4.139C22,16.997,21.84,17.304,21.571,17.491z M11.552,24.466l-1.766,1.229C9.454,25.926,9,25.689,9,25.285v-2.471c0-0.405,0.456-0.642,0.788-0.409l1.766,1.242	C11.837,23.846,11.836,24.267,11.552,24.466z M16.112,26.853l5.463,3.842C21.842,30.882,22,31.187,22,31.513v3.957	c0,0.792-0.878,1.27-1.543,0.84l-8.65-5.594c-0.598-0.387-0.612-1.257-0.026-1.662l3.187-2.205	C15.313,26.61,15.77,26.612,16.112,26.853z M26.425,30.695l5.463-3.842c0.343-0.241,0.8-0.243,1.144-0.004l3.187,2.205	c0.586,0.405,0.572,1.275-0.026,1.662l-8.65,5.594C26.878,36.739,26,36.261,26,35.469v-3.957C26,31.187,26.158,30.882,26.425,30.695	z M36.446,23.646l1.766-1.242C38.544,22.171,39,22.408,39,22.813v2.471c0,0.404-0.454,0.641-0.786,0.41l-1.766-1.229	C36.164,24.267,36.163,23.846,36.446,23.646z"/></svg>